REM DIRINDEX 1\2,1\3,1\4,1\5
REM DIRNAME cjc093,folder01,folder02,folder03,folder04
TITLE ""
FILE "Round-08-170-171.mp3" MP3
  TRACK 01 AUDIO
    TITLE "0:"
    INDEX 01 00:00:00
  TRACK 02 AUDIO
    TITLE "5:cjc093_1839"
    INDEX 01 00:00:01
  TRACK 03 AUDIO
    TITLE "0:"
    INDEX 01 00:01:30
  TRACK 04 AUDIO
    TITLE "5:cjc093_1840"
    INDEX 01 00:02:02
  TRACK 05 AUDIO
    TITLE "0:"
    INDEX 01 00:03:33
  TRACK 06 AUDIO
    TITLE "2:cjc093_1841"
    INDEX 01 00:04:07
  TRACK 07 AUDIO
    TITLE "0:"
    INDEX 01 00:05:22
  TRACK 08 AUDIO
    TITLE "3:cjc093_1842"
    INDEX 01 00:05:36
  TRACK 09 AUDIO
    TITLE "0:"
    INDEX 01 00:06:55
  TRACK 10 AUDIO
    TITLE "4:cjc093_1843"
    INDEX 01 00:07:23
  TRACK 11 AUDIO
    TITLE "0:"
    INDEX 01 00:12:03
  TRACK 12 AUDIO
    TITLE "2:cjc093_1844"
    INDEX 01 00:13:26
  TRACK 13 AUDIO
    TITLE "0:"
    INDEX 01 00:14:15
  TRACK 14 AUDIO
    TITLE "3:cjc093_1845"
    INDEX 01 00:14:62
  TRACK 15 AUDIO
    TITLE "0:"
    INDEX 01 00:17:29
  TRACK 16 AUDIO
    TITLE "4:cjc093_1846"
    INDEX 01 00:17:72
  TRACK 17 AUDIO
    TITLE "0:"
    INDEX 01 00:22:19
  TRACK 18 AUDIO
    TITLE "3:cjc093_1847"
    INDEX 01 00:23:16
  TRACK 19 AUDIO
    TITLE "0:"
    INDEX 01 00:25:27
  TRACK 20 AUDIO
    TITLE "4:cjc093_1848"
    INDEX 01 00:25:52
  TRACK 21 AUDIO
    TITLE "0:"
    INDEX 01 00:29:48
  TRACK 22 AUDIO
    TITLE "2:cjc093_1849"
    INDEX 01 00:30:59
  TRACK 23 AUDIO
    TITLE "0:"
    INDEX 01 00:31:61
  TRACK 24 AUDIO
    TITLE "3:cjc093_1850"
    INDEX 01 00:32:31
  TRACK 25 AUDIO
    TITLE "0:"
    INDEX 01 00:34:43
  TRACK 26 AUDIO
    TITLE "4:cjc093_1851"
    INDEX 01 00:34:69
  TRACK 27 AUDIO
    TITLE "0:"
    INDEX 01 00:38:22
  TRACK 28 AUDIO
    TITLE "4:cjc093_1852"
    INDEX 01 00:38:67
  TRACK 29 AUDIO
    TITLE "0:"
    INDEX 01 00:42:00
  TRACK 30 AUDIO
    TITLE "3:cjc093_1853"
    INDEX 01 00:42:70
  TRACK 31 AUDIO
    TITLE "0:"
    INDEX 01 00:45:61
  TRACK 32 AUDIO
    TITLE "4:cjc093_1854"
    INDEX 01 00:46:13
  TRACK 33 AUDIO
    TITLE "0:"
    INDEX 01 00:49:02
  TRACK 34 AUDIO
    TITLE "2:cjc093_1855"
    INDEX 01 00:50:17
  TRACK 35 AUDIO
    TITLE "0:"
    INDEX 01 00:51:24
  TRACK 36 AUDIO
    TITLE "3:cjc093_1856"
    INDEX 01 00:51:62
  TRACK 37 AUDIO
    TITLE "0:"
    INDEX 01 00:52:71
  TRACK 38 AUDIO
    TITLE "4:cjc093_1857"
    INDEX 01 00:53:35
  TRACK 39 AUDIO
    TITLE "0:"
    INDEX 01 00:56:08
  TRACK 40 AUDIO
    TITLE "3:cjc093_1858"
    INDEX 01 00:57:37
  TRACK 41 AUDIO
    TITLE "0:"
    INDEX 01 00:59:06
  TRACK 42 AUDIO
    TITLE "4:cjc093_1859"
    INDEX 01 00:59:36
  TRACK 43 AUDIO
    TITLE "0:"
    INDEX 01 01:03:47
  TRACK 44 AUDIO
    TITLE "2:cjc093_1860"
    INDEX 01 01:04:47
  TRACK 45 AUDIO
    TITLE "0:"
    INDEX 01 01:05:44
  TRACK 46 AUDIO
    TITLE "3:cjc093_1861"
    INDEX 01 01:05:66
  TRACK 47 AUDIO
    TITLE "0:"
    INDEX 01 01:07:66
  TRACK 48 AUDIO
    TITLE "4:cjc093_1862"
    INDEX 01 01:08:15
  TRACK 49 AUDIO
    TITLE "0:"
    INDEX 01 01:10:49
  TRACK 50 AUDIO
    TITLE "2:cjc093_1863"
    INDEX 01 01:11:60
  TRACK 51 AUDIO
    TITLE "0:"
    INDEX 01 01:12:73
  TRACK 52 AUDIO
    TITLE "3:cjc093_1864"
    INDEX 01 01:13:49
  TRACK 53 AUDIO
    TITLE "0:"
    INDEX 01 01:15:68
  TRACK 54 AUDIO
    TITLE "4:cjc093_1865"
    INDEX 01 01:16:48
  TRACK 55 AUDIO
    TITLE "0:"
    INDEX 01 01:21:04
  TRACK 56 AUDIO
    TITLE "2:cjc093_1866"
    INDEX 01 01:22:09
  TRACK 57 AUDIO
    TITLE "0:"
    INDEX 01 01:23:16
  TRACK 58 AUDIO
    TITLE "3:cjc093_1867"
    INDEX 01 01:23:58
  TRACK 59 AUDIO
    TITLE "0:"
    INDEX 01 01:25:60
  TRACK 60 AUDIO
    TITLE "4:cjc093_1868"
    INDEX 01 01:26:09
  TRACK 61 AUDIO
    TITLE "0:"
    INDEX 01 01:30:30
  TRACK 62 AUDIO
    TITLE "2:cjc093_1869"
    INDEX 01 01:31:39
  TRACK 63 AUDIO
    TITLE "0:"
    INDEX 01 01:32:51
  TRACK 64 AUDIO
    TITLE "3:cjc093_1870"
    INDEX 01 01:33:15
  TRACK 65 AUDIO
    TITLE "0:"
    INDEX 01 01:35:55
  TRACK 66 AUDIO
    TITLE "4:cjc093_1871"
    INDEX 01 01:36:21
  TRACK 67 AUDIO
    TITLE "0:"
    INDEX 01 01:38:26
